<svg width="89" height="43" viewBox="0 0 89 43" fill="none" xmlns="http://www.w3.org/2000/svg">
<path d="M34.944 33.264L39.072 38.16C36.816 40.896 33.504 42.384 29.664 42.384C24.192 42.384 20.592 40.512 14.976 34.656C6.14401 33.168 1.15633e-05 26.352 1.15633e-05 17.472C1.15633e-05 7.39197 7.92001 -2.95639e-05 18.672 -2.95639e-05C29.424 -2.95639e-05 37.344 7.39197 37.344 17.472C37.344 25.104 32.784 31.2 25.92 33.696C27.264 35.136 28.416 35.616 29.856 35.616C31.68 35.616 33.456 34.8 34.944 33.264ZM9.60001 17.472C9.60001 23.28 13.584 27.072 18.672 27.072C23.76 27.072 27.744 23.28 27.744 17.472C27.744 11.664 23.76 7.87197 18.672 7.87197C13.584 7.87197 9.60001 11.664 9.60001 17.472ZM38.781 0.67197H54.525V34.272H45.021V8.01597H38.781V0.67197ZM68.4581 34.272V8.20797H58.1381V0.67197H88.2341V8.20797H77.9621V34.272H68.4581Z" fill="white"/>
</svg>
